<svg t="1568192371692" class="icon" viewBox="0 0 1025 1024" version="1.1" xmlns="http://www.w3.org/2000/svg" p-id="2670" width="200" height="200">
    <path d="M516.64945 46.5445c111.7078 0 202.469825 90.763025 202.469825 204.7978s-90.762025 204.7978-202.469825 204.7978-202.470825-90.762025-202.470825-204.7978 90.762025-204.7978 202.470825-204.7978m0-46.5445c-137.308525 0-249.016325 111.7088-249.016325 251.3423 0 139.6355 111.7088 251.3433 249.016325 251.3433s249.015325-111.7088 249.015325-251.3433C765.664775 111.7088 653.955975 0 516.64945 0z" fill="#ffffff" p-id="2671"></path>
    <path d="M563.19395 546.904125c167.5622 0 302.54175 137.306525 302.54175 304.868725v86.108075c0 20.944775-16.289825 39.563575-39.562575 39.563575H204.7978c-20.944775 0-39.563575-16.290825-39.563575-39.563575v-86.109075c0-167.5612 134.98055-304.868725 302.54275-304.868725H563.19395m0-48.872475h-95.416975c-193.161925 0-351.414225 158.2533-351.414225 353.7422v86.108075c0 48.872475 39.562575 86.108075 86.108075 86.108075h623.7023c46.5445 0 86.108075-39.563575 86.108075-86.109075v-86.107075C914.608175 656.28295 756.355875 498.03065 563.19395 498.03065z"
          fill="#ffffff" p-id="2672"></path>
    <path d="M25.599725 786.60955c-11.635875 0-20.944775-9.3089-23.27275-20.944775-16.289825-167.5622 86.109075-235.052475 153.59835-258.325225 6.981925-4.65395 6.981925-13.96285 2.327975-20.944775-39.563575-51.19945-58.181375-102.3989-53.527425-151.271375 9.3099-86.108075 79.12715-134.98055 81.454125-137.307525 11.635875-6.981925 25.599725-4.65395 32.58165 6.981925 6.980925 11.635875 4.65395 25.599725-6.981925 32.58165-2.326975 0-55.8544 39.562575-60.50935 102.3989-4.65395 48.872475 23.27275 102.3989 79.12715 158.2523 6.981925 6.981925 9.3099 16.290825 4.65495 23.27275-2.327975 9.3099-9.3099 13.96385-18.6188 16.290825-6.980925 0-188.506975 20.944775-167.5612 223.4156 0 11.636875-9.3099 23.27275-23.27275 25.599725z m972.78955 0c-13.96385-2.326975-23.27275-11.635875-23.27275-25.599725C993.734325 558.539 814.53625 537.594225 807.555325 537.594225c-9.3099 0-16.290825-6.981925-18.6188-16.289825-2.326975-9.3099 0-18.6198 4.65495-23.27375 55.8544-55.8534 83.7811-107.05285 79.12615-158.2523-4.65395-62.836325-60.50835-102.3989-60.50835-102.3989-11.635875-6.981925-13.96285-20.945775-6.981925-32.58165 6.981925-11.635875 20.945775-13.96385 32.58165-6.981925 2.326975 2.326975 74.4722 51.19945 81.454125 137.308525 4.65395 51.19945-13.96385 102.3989-53.527425 151.270375-4.65395 6.981925-2.326975 16.289825 4.65495 18.6178 67.489275 25.599725 167.5622 90.763025 153.59835 258.324225-2.326975 13.96385-11.635875 23.27275-25.599725 23.27275z"
          fill="#ffffff" p-id="2673"></path>
</svg>