<svg t="1568188201292" class="icon" viewBox="0 0 1170 1024" version="1.1" xmlns="http://www.w3.org/2000/svg" p-id="3145" width="200" height="200">
    <path d="M1076.662857 254.537143a137.435429 137.435429 0 0 0-101.449143-41.618286h-124.781714l-28.598857-75.410286a111.323429 111.323429 0 0 0-39.058286-46.811428c-18.212571-13.019429-38.985143-20.772571-57.197714-20.772572H439.515429c-20.845714 0-38.985143 7.753143-57.197715 20.772572a111.323429 111.323429 0 0 0-39.058285 46.811428l-31.158858 75.410286H184.612571c-38.985143 0-72.777143 13.019429-101.376 41.618286a137.435429 137.435429 0 0 0-41.691428 101.449143v501.906285c0 38.985143 13.092571 72.777143 41.691428 101.449143 28.525714 28.525714 62.390857 41.545143 101.376 41.545143h790.674286c38.985143 0 72.777143-12.946286 101.376-41.545143 28.598857-28.672 41.618286-62.464 41.618286-101.449143V355.986286c0-39.058286-13.019429-72.850286-41.618286-101.449143z m-496.713143 579.949714a237.494857 237.494857 0 0 1-236.690285-236.690286A237.494857 237.494857 0 0 1 580.022857 361.179429a237.494857 237.494857 0 0 1 236.617143 236.617142A237.494857 237.494857 0 0 1 580.022857 834.56z"
          fill="#ffffff" p-id="3146">

    </path>
</svg>