<?xml version="1.0" standalone="no"?><!DOCTYPE svg PUBLIC "-//W3C//DTD SVG 1.1//EN" "http://www.w3.org/Graphics/SVG/1.1/DTD/svg11.dtd">
<svg t="1568184719630" class="icon" viewBox="0 0 1024 1024" version="1.1" xmlns="http://www.w3.org/2000/svg" p-id="2873" xmlns:xlink="http://www.w3.org/1999/xlink" width="200" height="200">
    <defs>
        <style type="text/css">

        </style>
    </defs>
    <path d="M844.5952 261.802667h-64.170667c-25.668267 0-64.170667-19.114667-79.121066-36.113067l-42.8032-48.810667C634.9824 151.381333 605.047467 136.533333 570.811733 136.533333H455.338667c-38.5024 0-64.170667 12.731733-91.9552 42.461867l-42.769067 48.810667c-12.834133 14.882133-51.336533 33.9968-77.0048 33.9968H181.5552C138.752 261.802667 102.4 293.649067 102.4 333.960533V792.576c0 38.229333 32.085333 70.0416 72.704 72.157867h667.3408c42.8032 0 79.1552-33.962667 79.1552-72.157867V333.960533c0-40.311467-34.235733-72.157867-77.0048-72.157866z m34.235733 532.821333c0 16.9984-14.984533 29.764267-36.386133 29.764267H177.2544c-19.2512 0-32.085333-14.882133-32.085333-29.730134V333.960533c0-16.964267 14.984533-29.696 36.386133-29.696h62.020267c40.618667 0 89.838933-25.4976 109.090133-48.8448l42.769067-48.810666c19.2512-21.230933 34.2016-27.648 59.869866-27.648h115.5072c21.4016 0 40.618667 8.533333 55.637334 25.4976l42.769066 48.810666c21.367467 23.381333 70.587733 48.8448 111.2064 48.8448h64.170667c19.2512 0 36.352 12.731733 36.352 29.730134v462.813866h-2.116267z"
          fill="#000000" p-id="2874">

    </path>
    <path d="M512 379.255467A167.355733 167.355733 0 0 0 345.122133 546.133333c0 91.784533 75.093333 166.877867 166.877867 166.877867s166.877867-75.093333 166.877867-166.877867-75.093333-166.877867-166.877867-166.877866z m0 292.0448A125.508267 125.508267 0 0 1 386.833067 546.133333 125.508267 125.508267 0 0 1 512 420.9664 125.508267 125.508267 0 0 1 637.166933 546.133333 125.508267 125.508267 0 0 1 512 671.300267z" fill="#000000" p-id="2875">

    </path>
</svg>