<?xml version="1.0" standalone="no"?><!DOCTYPE svg PUBLIC "-//W3C//DTD SVG 1.1//EN" "http://www.w3.org/Graphics/SVG/1.1/DTD/svg11.dtd">
<svg t="1568085588779" class="icon" viewBox="0 0 1024 1024" version="1.1" xmlns="http://www.w3.org/2000/svg" p-id="39921" xmlns:xlink="http://www.w3.org/1999/xlink" width="200" height="200">
    <defs>
        <style type="text/css">

        </style>
    </defs>
    <path d="
        M512 56.889
        c-250.311 0-455.111 204.8-455.111 455.111
        S261.689 967.111 512 967.111 967.111 762.311 967.111 512 762.311 56.889 512 56.889
        m0 853.333
        c-221.867 0-398.222-176.355-398.222-398.222
        S290.133 113.778 512 113.778 910.222 290.133 910.222 512 733.867 910.222 512 910.222"
          fill="#ffffff" p-id="42719">

    </path>

    <path d="
        M779.636364 483.818182
        h-570
        l 300 -200
        v130
        h280
        c18 0 34 16 34 34
        s-16 34 -34 34
        z
        M244.363636 550.181818
        h570
        l -300 200
        v-130
        H244.363636
        c-18 0 -34 -16 -34 -34
        s16 -34 34 -34
        z"
          fill="#ffffff" p-id="48409">

    </path>

</svg>