<?xml version="1.0" standalone="no"?><!DOCTYPE svg PUBLIC "-//W3C//DTD SVG 1.1//EN" "http://www.w3.org/Graphics/SVG/1.1/DTD/svg11.dtd"><svg t="1566537556109" class="icon" viewBox="0 0 1385 1024" version="1.1" xmlns="http://www.w3.org/2000/svg" p-id="7066" xmlns:xlink="http://www.w3.org/1999/xlink" width="270.5078125" height="200"><defs><style type="text/css"></style></defs><path d="M693.007059 0C445.921882 0 211.516235 95.683765 31.533176 269.131294L0 299.52l30.629647 31.352471 99.870118 102.4 28.762353 29.455058 29.696-28.16c137.607529-130.891294 316.355765-203.203765 503.446588-203.203764 187.090824 0 366.140235 72.312471 503.446588 203.203764l29.696 28.16 28.732235-29.455058 99.900236-102.4 30.599529-31.352471-31.533176-30.418824C1173.895529 95.713882 939.158588 0 693.007059 0z" p-id="7067" fill="#2c2c2c"></path><path d="M1129.984 513.295059c-119.988706-112.338824-274.913882-174.08-436.344471-174.08h-27.527529l-0.301176 0.602353c-152.154353 6.415059-296.869647 67.553882-410.051765 173.477647l-32.496941 30.388706 31.232 31.984941 101.135058 103.695059 28.129883 28.79247 29.696-26.864941c78.245647-71.077647 177.513412-110.411294 279.250823-110.411294 102.369882 0 201.637647 39.363765 279.853177 110.411294l29.696 26.864941 28.129882-28.79247 101.135059-103.695059 31.232-31.984941-32.768-30.418824z" p-id="7068" fill="#2c2c2c"></path><path d="M693.308235 1024l29.696-30.418824 163.297883-167.03247 32.768-33.581177-35.870118-30.418823c-47.616-36.442353-100.201412-64-190.192941-64-89.660235 0-138.842353 30.117647-190.162824 64l-35.568941 30.418823 32.768 33.581177 163.297882 167.062588L693.308235 1024z" p-id="7069" fill="#2c2c2c"></path></svg>